<?xml version="1.0" encoding="UTF-8"?>
<svg id="Calque_2" data-name="Calque 2" xmlns="http://www.w3.org/2000/svg" viewBox="0 0 765.25 478.86">
  <g id="Calque_1-2" data-name="Calque 1">
    <path d="M148.97,2.86h73.43c6.69,42.98,13.37,85.94,20.06,128.91,.34,0,.68,0,1.02-.01,6.39-42.91,12.77-85.82,19.17-128.83h72.16V227.99h-44.86V84.88c-.34-.04-.68-.08-1.02-.11-9.17,47.74-18.33,95.49-27.55,143.5h-38.43c-9.24-47.79-18.48-95.64-27.73-143.48-.23,.01-.45,.03-.68,.04V228.24h-45.57V2.86Z"/>
    <path d="M114.47,249.6c20.27,0,40.73-.21,61.19,.1,8.77,.13,17.65,.61,26.25,2.17,17.26,3.12,29.62,14.9,31.27,32.23,1.59,16.61,.94,33.5,.31,50.23-.38,9.98-6.99,17.22-14.86,23.67,15.62,8.39,19.12,22.54,18.92,38.14-.18,13.62,.05,27.41-1.98,40.81-3.09,20.36-15.65,33.24-36.15,35.52-21.92,2.44-44.13,2.26-66.21,3.1-5.97,.23-11.95,.03-18.74,.03V249.6Zm47.41,126.78v59.76c3.73,0,7.19,.2,10.62-.04,9.35-.64,14.09-4.56,15.02-13.94,.95-9.54,1.19-19.21,.91-28.79-.25-8.56-4.53-14.19-10.9-15.38-4.99-.93-10.13-1.07-15.64-1.6Zm-.08-36.63c4.34,0,8.32,.3,12.24-.07,5.6-.53,10.07-3.64,11.23-9.08,2.4-11.28,2.53-22.66-1.56-33.75-1.63-4.42-5.05-6.55-9.43-6.93-4.07-.36-8.19-.08-12.48-.08v49.91Z"/>
    <path d="M636.64,1.73c2.81,0,5.77,0,8.73,0,22.32,.02,44.64-.1,66.96,.1,25.66,.23,44.91,18.31,47.36,43.89,1.69,17.6,2.17,35.16,.03,52.77-1.49,12.24-6.63,22.13-17.18,28.81-2.29,1.45-3,2.52-2.21,5.47,8.06,30.17,15.87,60.41,23.75,90.63,.37,1.42,.71,2.85,1.17,4.73h-49.41c-7.1-29.42-14.3-59.22-21.55-89.27h-8.51v89.11h-49.15V1.73Zm49.36,40.43v59.64c3.01,0,5.65,0,8.3,0,10.5,0,15.08-3.24,16.27-13.87,1.12-10.03,1.46-20.29,.73-30.34-.88-12.16-5.26-15.36-17.49-15.43-2.47-.01-4.94,0-7.81,0Z"/>
    <path d="M302.77,475.34h-48.04V248.97c.61-.08,1.55-.31,2.5-.31,23.66,.01,47.32-.24,70.97,.16,27.54,.47,45.08,16.32,48.49,43.57,2.49,19.87,3.13,39.78-.79,59.59-1.94,9.85-7.43,17.32-15.77,22.62-2.8,1.77-3.73,3.12-2.77,6.69,8.12,30.15,15.93,60.38,23.82,90.59,.29,1.11,.44,2.26,.71,3.67h-49.01c-7.15-29.79-14.34-59.73-21.5-89.55h-8.62v89.34Zm.69-185.59v59.16c2.83,0,5.3,0,7.77,0,10.67,0,15.5-2.92,16.71-13.44,1.26-10.97,1.25-22.27,.13-33.26-.99-9.71-5.43-12.35-15.31-12.46-2.98-.03-5.96,0-9.3,0Z"/>
    <path d="M352.63,115c0-20.32,0-40.64,0-60.96,.01-27.3,21.6-50.61,48.71-53.37,12.05-1.23,23.78-.88,35.58,1.97,26.23,6.32,41.01,28.99,41.47,52.68,.78,40.46,.95,80.97-.06,121.42-.69,27.71-17.24,47.79-46.03,53.12-12.78,2.37-25.35,2.03-38.03-.74-23.54-5.16-35.33-21.18-40.55-43.3-.9-3.82-1.02-7.89-1.04-11.85-.1-19.65-.05-39.31-.05-58.97Zm76-1.54c0-19.15,.06-38.31-.03-57.46-.04-7.82-3.84-12.76-9.89-13.37-7.68-.78-13.56,3.47-15.04,11.28-.67,3.57-.88,7.27-.88,10.91-.07,35.14-.09,70.28-.03,105.41,0,2.97,.34,6.01,1.07,8.88,1.37,5.41,6.48,9.5,11.44,9.63,5.16,.13,10.15-3.4,11.8-9.02,.97-3.3,1.47-6.85,1.5-10.29,.14-18.65,.07-37.31,.06-55.96Z"/>
    <path d="M569.02,2.95h49.69c.09,1.99,.24,3.76,.24,5.54-.02,53-.06,106-.07,159,0,10.19-1.13,20.15-5.05,29.7-6.73,16.42-18.14,27.57-35.6,31.85-19.97,4.89-39.6,4.68-57.79-6.14-14.62-8.7-22.49-22.22-24.74-38.92-.82-6.07-.99-12.27-1.02-18.41-.24-52.16-.38-104.33-.55-156.49,0-1.96,0-3.92,0-6.11h50.51c0,1.96,0,3.89,0,5.81-.28,52.16-.62,104.32-.76,156.49-.01,5.42,.66,10.98,1.95,16.24,1.36,5.5,5.6,8.29,10.49,8.26,5.39-.03,8.99-2.92,10.27-7.84,1.27-4.91,2.17-10.08,2.19-15.14,.21-44.66,.2-89.33,.25-133.99,.01-9.81,0-19.62,0-29.86Z"/>
    <path d="M395.34,249.39h50.44c0,2.5,.01,4.76,0,7.01-.35,52.49-.76,104.97-.97,157.46-.02,4.74,.62,9.65,1.97,14.18,1.67,5.6,5.92,8.13,11.27,8.07,5.1-.06,8.81-2.57,10.53-8.26,1.18-3.9,1.75-8.13,1.77-12.22,.26-52.99,.36-105.98,.51-158.97,0-2.3,0-4.6,0-7.27h49.12c0,1.89,0,3.67,0,5.46-.12,56.16,.16,112.32-.51,168.46-.35,29.66-18.71,50.71-49.37,54.62-15.01,1.91-29.66,1.23-43.36-5.3-19.36-9.23-30.46-25.5-30.87-46.46-1.02-51.8-.46-103.64-.53-155.46,0-6.97,0-13.95,0-21.3Z"/>
    <path d="M83.95,191.02h-31.37c-1.42,12.31-2.83,24.61-4.28,37.23H0C10.02,152.98,20,78.02,30.05,2.58c1.23,0,2.68,0,4.12,0,21.99-.03,43.98-.02,65.98-.17,3.03-.02,4.15,.53,4.63,3.94,3.32,23.8,7.04,47.54,10.54,71.31,2.85,19.35,5.52,38.73,8.34,58.09,2.75,18.86,5.59,37.71,8.38,56.57,1.74,11.79,3.45,23.59,5.23,35.71h-48.87c-1.47-12.27-2.95-24.56-4.45-37.02Zm-15.55-140.18l-.96-.07c-3.62,33.53-7.24,67.06-10.87,100.75h22.34c-3.53-33.77-7.02-67.23-10.51-100.68Z"/>
    <path d="M534.74,291.01v-42.06h114.63v41.76h-31.66v184.62h-49.98v-184.32h-33Z"/>
  </g>
</svg>